<?xml version="1.0" encoding="utf-8"?>
<!-- Generator: Adobe Illustrator 16.0.0, SVG Export Plug-In . SVG Version: 6.00 Build 0)  -->
<!DOCTYPE svg PUBLIC "-//W3C//DTD SVG 1.1//EN" "http://www.w3.org/Graphics/SVG/1.1/DTD/svg11.dtd">
<svg version="1.1" id="Layer_2" xmlns="http://www.w3.org/2000/svg" xmlns:xlink="http://www.w3.org/1999/xlink" x="0px" y="0px"
	 width="110px" height="140px" viewBox="0 0 110 140" enable-background="new 0 0 110 140" xml:space="preserve">
<g>
	<circle fill="#2B55A2" cx="32.5" cy="2.5" r="2.5"/>
	<path fill="#2B55A2" d="M38.5,4C37.672,4,37,3.328,37,2.5S37.672,1,38.5,1h10C49.328,1,50,1.672,50,2.5S49.328,4,48.5,4H38.5z"/>
	<circle fill="#2B55A2" cx="32.5" cy="10" r="2.5"/>
	<path fill="#2B55A2" d="M38.5,11.5c-0.828,0-1.5-0.672-1.5-1.5s0.672-1.5,1.5-1.5h5c0.828,0,1.5,0.672,1.5,1.5s-0.672,1.5-1.5,1.5
		H38.5z"/>
	<circle fill="#2B55A2" cx="32.5" cy="17.5" r="2.5"/>
	<path fill="#2B55A2" d="M38.5,19c-0.828,0-1.5-0.672-1.5-1.5s0.672-1.5,1.5-1.5h8c0.828,0,1.5,0.672,1.5,1.5S47.328,19,46.5,19
		H38.5z"/>
</g>
<polygon fill="#78AEEA" points="20,38.5 11.5,38.5 11.5,30 8.5,30 8.5,38.5 0,38.5 0,41.5 8.5,41.5 8.5,50 11.5,50 11.5,41.5 
	20,41.5 "/>
<polygon fill="#5182BB" points="50,38.5 41.5,38.5 41.5,30 38.5,30 38.5,38.5 30,38.5 30,41.5 38.5,41.5 38.5,50 41.5,50 41.5,41.5 
	50,41.5 "/>
<polygon fill="#78AEEA" points="77.392,60 70,67.392 62.608,60 60,62.609 67.392,70 60,77.391 62.608,80 70,72.607 77.392,80 
	80,77.391 72.608,70 80,62.609 "/>
<g>
	<g>
		<path fill="#78AEEA" d="M18.586,65.826L20,64.412l-3.536-3.536L15.05,62.29L18.586,65.826z"/>
		<path fill="#78AEEA" d="M17.524,66.887l0.708-0.707l-3.536-3.536l-0.707,0.708L17.524,66.887z"/>
		<polygon fill="#78AEEA" points="3.854,77.021 7.743,76.669 17.171,67.24 16.464,66.533 13.636,69.362 13.062,69.937 7.292,75.706 
			4.983,75.915 5.251,73.504 10.939,67.815 11.515,67.24 14.343,64.412 13.636,63.705 4.296,73.045 		"/>
		
			<rect x="10.357" y="63.589" transform="matrix(-0.7071 -0.7071 0.7071 -0.7071 -30.9756 127.2061)" fill="#78AEEA" width="1" height="12.858"/>
	</g>
	<g>
		<polygon fill="#78AEEA" points="14,70.412 14,79 1,79 1,65 5,65 5,61 14,61 14,63.341 14.696,62.644 15,62.948 15,60 5,60 0,65 
			0,80 15,80 15,69.411 		"/>
	</g>
</g>
<polygon fill="#5182BB" points="107.392,60 100,67.392 92.608,60 90,62.609 97.392,70 90,77.391 92.608,80 100,72.607 107.392,80 
	110,77.391 102.608,70 110,62.609 "/>
<g>
	<g>
		<path fill="#5182BB" d="M48.586,65.826L50,64.412l-3.536-3.536L45.05,62.29L48.586,65.826z"/>
		<path fill="#5182BB" d="M47.524,66.887l0.708-0.707l-3.536-3.536l-0.707,0.708L47.524,66.887z"/>
		<polygon fill="#5182BB" points="33.854,77.021 37.743,76.669 47.171,67.24 46.464,66.533 43.636,69.362 43.062,69.937 
			37.292,75.706 34.983,75.915 35.251,73.504 40.939,67.815 41.515,67.24 44.343,64.412 43.636,63.705 34.296,73.045 		"/>
		
			<rect x="40.357" y="63.589" transform="matrix(-0.7071 -0.7071 0.7071 -0.7071 20.2369 148.4185)" fill="#5182BB" width="1" height="12.858"/>
	</g>
	<g>
		<polygon fill="#5182BB" points="44,70.412 44,79 31,79 31,65 35,65 35,61 44,61 44,63.341 44.696,62.644 45,62.948 45,60 35,60 
			30,65 30,80 45,80 45,69.411 		"/>
	</g>
</g>
<g>
	<circle fill="#8A8A8A" cx="2.5" cy="2.5" r="2.5"/>
	<path fill="#8A8A8A" d="M8.5,4C7.672,4,7,3.328,7,2.5S7.672,1,8.5,1h10C19.328,1,20,1.672,20,2.5S19.328,4,18.5,4H8.5z"/>
	<circle fill="#8A8A8A" cx="2.5" cy="10" r="2.5"/>
	<path fill="#8A8A8A" d="M8.5,11.5C7.672,11.5,7,10.828,7,10s0.672-1.5,1.5-1.5h5c0.828,0,1.5,0.672,1.5,1.5s-0.672,1.5-1.5,1.5H8.5
		z"/>
	<circle fill="#8A8A8A" cx="2.5" cy="17.5" r="2.5"/>
	<path fill="#8A8A8A" d="M8.5,19C7.672,19,7,18.328,7,17.5S7.672,16,8.5,16h8c0.828,0,1.5,0.672,1.5,1.5S17.328,19,16.5,19H8.5z"/>
</g>
<g>
	<path fill="#8A8A8A" d="M19,99.5c0-5.247-4.253-9.5-9.5-9.5S0,94.253,0,99.5c0,2.458,0.941,4.691,2.474,6.377L0,110l4.279-2.566
		C5.777,108.421,7.57,109,9.5,109c0.076,0,0.149-0.01,0.226-0.011C9.817,108.991,9.907,109,10,109c4.971,0,9-4.029,9-9
		c0-0.084-0.011-0.166-0.013-0.25C18.989,99.666,19,99.584,19,99.5z"/>
	<g>
		<path fill="#FFFFFF" d="M7.993,94.5c0-0.828,0.672-1.5,1.5-1.5c0.828,0,1.5,0.672,1.5,1.5v5.334c0,0.828-0.672,1.5-1.5,1.5
			c-0.828,0-1.5-0.672-1.5-1.5V94.5z"/>
		<circle fill="#FFFFFF" cx="9.493" cy="104.5" r="1.5"/>
	</g>
</g>
<g>
	<path fill="#5182BB" d="M49,99.5c0-5.247-4.253-9.5-9.5-9.5S30,94.253,30,99.5c0,2.458,0.941,4.691,2.474,6.377L30,110l4.279-2.566
		C35.777,108.421,37.57,109,39.5,109c0.076,0,0.149-0.01,0.226-0.011C39.817,108.991,39.907,109,40,109c4.971,0,9-4.029,9-9
		c0-0.084-0.011-0.166-0.013-0.25C48.989,99.666,49,99.584,49,99.5z"/>
	<g>
		<path fill="#FFFFFF" d="M37.993,94.5c0-0.828,0.672-1.5,1.5-1.5c0.828,0,1.5,0.672,1.5,1.5v5.334c0,0.828-0.672,1.5-1.5,1.5
			c-0.828,0-1.5-0.672-1.5-1.5V94.5z"/>
		<circle fill="#FFFFFF" cx="39.493" cy="104.5" r="1.5"/>
	</g>
</g>
<path fill="#5182BB" d="M100,30v2c4.412,0,8,3.589,8,8s-3.588,8-8,8c-4.41,0-8-3.589-8-8c0-1.755,0.578-3.373,1.539-4.693
	l1.096,1.095l1.768-5.303L91.1,32.866l1.01,1.01c-1.316,1.692-2.107,3.813-2.107,6.124c0,5.523,4.477,10,10,10
	c5.522,0,10-4.477,10-10S105.524,30,100,30z"/>
<path fill="#78AEEA" d="M70,30v2c4.41,0,8,3.589,8,8s-3.59,8-8,8c-4.412,0-8-3.589-8-8c0-1.755,0.576-3.373,1.539-4.693l1.094,1.095
	l1.769-5.303l-5.303,1.768l1.01,1.01C60.792,35.568,60,37.689,60,40c0,5.523,4.477,10,10,10c5.522,0,10-4.477,10-10S75.523,30,70,30
	z"/>
<g>
	<path fill="#FFFFFF" d="M61.5,3C60.672,3,60,2.328,60,1.5S60.672,0,61.5,0h17C79.329,0,80,0.672,80,1.5S79.329,3,78.5,3H61.5z"/>
	<path fill="#FFFFFF" d="M61.5,11.5c-0.828,0-1.5-0.672-1.5-1.5s0.672-1.5,1.5-1.5h17c0.828,0,1.5,0.672,1.5,1.5s-0.672,1.5-1.5,1.5
		H61.5z"/>
	<path fill="#FFFFFF" d="M61.5,20c-0.828,0-1.5-0.672-1.5-1.5s0.672-1.5,1.5-1.5h17c0.828,0,1.5,0.672,1.5,1.5S79.329,20,78.5,20
		H61.5z"/>
</g>
<g>
	<path fill="#2B55A2" d="M108,90H92c-1.104,0-2,0.896-2,2v11c0,1.104,0.896,2,2,2h16c1.104,0,2-0.896,2-2V92
		C110,90.896,109.105,90,108,90z M108,101c0,1.104-0.896,2-2,2H94c-1.104,0-2-0.896-2-2v-7c0-1.104,0.896-2,2-2h12
		c1.104,0,2,0.896,2,2V101z"/>
	<path fill="#2B55A2" d="M103,108v-2h-6v2c0,1.104-0.896,2-2,2h10C103.896,110,103,109.104,103,108z"/>
</g>
<g>
	<path fill="#8A8A8A" d="M78,90H62c-1.104,0-2,0.896-2,2v11c0,1.104,0.896,2,2,2h16c1.104,0,2-0.896,2-2V92
		C80,90.896,79.104,90,78,90z M78,101c0,1.104-0.896,2-2,2H64c-1.104,0-2-0.896-2-2v-7c0-1.104,0.896-2,2-2h12c1.104,0,2,0.896,2,2
		V101z"/>
	<path fill="#8A8A8A" d="M73,108v-2h-6v2c0,1.104-0.896,2-2,2h10C73.896,110,73,109.104,73,108z"/>
</g>
<g>
	<g>
		<circle fill="#78AEEA" cx="14" cy="134" r="6"/>
		<g>
			<path fill="#FFFFFF" d="M13.079,137l-3.052-3.05l0.93-0.931l1.947,1.947L16.868,131l1.104,1.104L13.079,137z"/>
		</g>
	</g>
	<g>
		<rect x="8.5" y="120" fill="#78AEEA" width="3" height="1"/>
		<rect x="12.75" y="120" fill="#78AEEA" width="3" height="1"/>
		<rect x="4.25" y="120" fill="#78AEEA" width="3" height="1"/>
		<rect x="8.5" y="139" fill="#78AEEA" width="3" height="1"/>
		<rect x="12.75" y="139" fill="#78AEEA" width="3" height="1"/>
		<rect x="4.25" y="139" fill="#78AEEA" width="3" height="1"/>
		<polygon fill="#78AEEA" points="3,120 1,120 0,120 0,121 0,123 1,123 1,121 3,121 		"/>
		<rect y="124.25" fill="#78AEEA" width="1" height="3"/>
		<rect y="128.5" fill="#78AEEA" width="1" height="3"/>
		<rect y="132.75" fill="#78AEEA" width="1" height="3"/>
		<rect x="19" y="124.25" fill="#78AEEA" width="1" height="3"/>
		<rect x="19" y="128.5" fill="#78AEEA" width="1" height="3"/>
		<rect x="19" y="132.75" fill="#78AEEA" width="1" height="3"/>
		<polygon fill="#78AEEA" points="1,139 1,137 0,137 0,139 0,140 1,140 3,140 3,139 		"/>
		<polygon fill="#78AEEA" points="19,139 17,139 17,140 19,140 20,140 20,139 20,137 19,137 		"/>
		<polygon fill="#78AEEA" points="19,120 17,120 17,121 19,121 19,123 20,123 20,121 20,120 		"/>
	</g>
</g>
<g>
	<g>
		<circle fill="#5182BB" cx="44.001" cy="134" r="6"/>
		<g>
			<path fill="#FFFFFF" d="M43.08,137l-3.052-3.05l0.93-0.931l1.947,1.947L46.869,131l1.104,1.104L43.08,137z"/>
		</g>
	</g>
	<g>
		<rect x="38.501" y="120" fill="#5182BB" width="3" height="1"/>
		<rect x="42.751" y="120" fill="#5182BB" width="3" height="1"/>
		<rect x="34.251" y="120" fill="#5182BB" width="3" height="1"/>
		<rect x="38.501" y="139" fill="#5182BB" width="3" height="1"/>
		<rect x="42.751" y="139" fill="#5182BB" width="3" height="1"/>
		<rect x="34.251" y="139" fill="#5182BB" width="3" height="1"/>
		<polygon fill="#5182BB" points="33.001,120 31.001,120 30.001,120 30.001,121 30.001,123 31.001,123 31.001,121 33.001,121 		"/>
		<rect x="30.001" y="124.25" fill="#5182BB" width="1" height="3"/>
		<rect x="30.001" y="128.5" fill="#5182BB" width="1" height="3"/>
		<rect x="30.001" y="132.75" fill="#5182BB" width="1" height="3"/>
		<rect x="49.001" y="124.25" fill="#5182BB" width="1" height="3"/>
		<rect x="49.001" y="128.5" fill="#5182BB" width="1" height="3"/>
		<rect x="49.001" y="132.75" fill="#5182BB" width="1" height="3"/>
		<polygon fill="#5182BB" points="31.001,139 31.001,137 30.001,137 30.001,139 30.001,140 31.001,140 33.001,140 33.001,139 		"/>
		<polygon fill="#5182BB" points="49.001,139 47.001,139 47.001,140 49.001,140 50.001,140 50.001,139 50.001,137 49.001,137 		"/>
		<polygon fill="#5182BB" points="49.001,120 47.001,120 47.001,121 49.001,121 49.001,123 50.001,123 50.001,121 50.001,120 		"/>
	</g>
</g>
<g>
	<g>
		<circle fill="#78AEEA" cx="74" cy="134" r="6"/>
		<g>
			<path fill="#FFFFFF" d="M72.995,131l0.588,1.007c0.172,0.306,0.334,0.601,0.492,0.896h0.022c0.159-0.332,0.309-0.625,0.467-0.92
				L75.092,131h2.025l-1.978,2.859l2,3.141h-2.108l-0.601-1.08c-0.175-0.295-0.322-0.602-0.47-0.908h-0.035
				c-0.147,0.319-0.307,0.613-0.454,0.908L72.909,137h-2.05l2.037-3.055L70.909,131H72.995z"/>
		</g>
	</g>
	<g>
		<rect x="68.5" y="120" fill="#78AEEA" width="3" height="1"/>
		<rect x="72.75" y="120" fill="#78AEEA" width="3" height="1"/>
		<rect x="64.25" y="120" fill="#78AEEA" width="3" height="1"/>
		<rect x="68.5" y="139" fill="#78AEEA" width="3" height="1"/>
		<rect x="72.75" y="139" fill="#78AEEA" width="3" height="1"/>
		<rect x="64.25" y="139" fill="#78AEEA" width="3" height="1"/>
		<polygon fill="#78AEEA" points="63,120 61,120 60,120 60,121 60,123 61,123 61,121 63,121 		"/>
		<rect x="60" y="124.25" fill="#78AEEA" width="1" height="3"/>
		<rect x="60" y="128.5" fill="#78AEEA" width="1" height="3"/>
		<rect x="60" y="132.75" fill="#78AEEA" width="1" height="3"/>
		<rect x="79" y="124.25" fill="#78AEEA" width="1" height="3"/>
		<rect x="79" y="128.5" fill="#78AEEA" width="1" height="3"/>
		<rect x="79" y="132.75" fill="#78AEEA" width="1" height="3"/>
		<polygon fill="#78AEEA" points="61,139 61,137 60,137 60,139 60,140 61,140 63,140 63,139 		"/>
		<polygon fill="#78AEEA" points="79,139 77,139 77,140 79,140 80,140 80,139 80,137 79,137 		"/>
		<polygon fill="#78AEEA" points="79,120 77,120 77,121 79,121 79,123 80,123 80,121 80,120 		"/>
	</g>
</g>
<g>
	<g>
		<circle fill="#5182BB" cx="104" cy="134" r="6"/>
		<g>
			<path fill="#FFFFFF" d="M102.995,131l0.588,1.007c0.172,0.306,0.334,0.601,0.492,0.896h0.023c0.16-0.332,0.309-0.625,0.467-0.92
				l0.527-0.981h2.025l-1.978,2.858l2,3.142h-2.108l-0.601-1.08c-0.175-0.295-0.322-0.601-0.47-0.907h-0.035
				c-0.147,0.318-0.307,0.612-0.454,0.907l-0.563,1.08h-2.05l2.037-3.055L100.909,131H102.995z"/>
		</g>
	</g>
	<g>
		<rect x="98.5" y="120" fill="#5182BB" width="3" height="1"/>
		<rect x="102.75" y="120" fill="#5182BB" width="3" height="1"/>
		<rect x="94.25" y="120" fill="#5182BB" width="3" height="1"/>
		<rect x="98.5" y="139" fill="#5182BB" width="3" height="1"/>
		<rect x="102.75" y="139" fill="#5182BB" width="3" height="1"/>
		<rect x="94.25" y="139" fill="#5182BB" width="3" height="1"/>
		<polygon fill="#5182BB" points="93,120 91,120 90,120 90,121 90,123 91,123 91,121 93,121 		"/>
		<rect x="90" y="124.25" fill="#5182BB" width="1" height="3"/>
		<rect x="90" y="128.5" fill="#5182BB" width="1" height="3"/>
		<rect x="90" y="132.75" fill="#5182BB" width="1" height="3"/>
		<rect x="109" y="124.25" fill="#5182BB" width="1" height="3"/>
		<rect x="109" y="128.5" fill="#5182BB" width="1" height="3"/>
		<rect x="109" y="132.75" fill="#5182BB" width="1" height="3"/>
		<polygon fill="#5182BB" points="91,139 91,137 90,137 90,139 90,140 91,140 93,140 93,139 		"/>
		<polygon fill="#5182BB" points="109,139 107,139 107,140 109,140 110,140 110,139 110,137 109,137 		"/>
		<polygon fill="#5182BB" points="109,120 107,120 107,121 109,121 109,123 110,123 110,121 110,120 		"/>
	</g>
</g>
</svg>
