<?xml version="1.0" encoding="utf-8"?>
<!-- Generator: Adobe Illustrator 15.1.0, SVG Export Plug-In . SVG Version: 6.00 Build 0)  -->
<!DOCTYPE svg PUBLIC "-//W3C//DTD SVG 1.1//EN" "http://www.w3.org/Graphics/SVG/1.1/DTD/svg11.dtd">
<svg version="1.1" id="Layer_2" xmlns="http://www.w3.org/2000/svg" xmlns:xlink="http://www.w3.org/1999/xlink" x="0px" y="0px"
	 width="75px" height="55px" viewBox="0 0 75 55" enable-background="new 0 0 75 55" xml:space="preserve">
<g>
	<g>
		<g>
			<path fill="#8A8A8A" d="M13.939,4.37L15,3.309l-2.652-2.652l-1.061,1.061L13.939,4.37z"/>
			<path fill="#8A8A8A" d="M13.144,5.165l0.531-0.53l-2.652-2.652l-0.53,0.531L13.144,5.165z"/>
			<polygon fill="#8A8A8A" points="2.89,12.767 5.808,12.502 12.878,5.43 12.348,4.9 10.227,7.021 9.796,7.452 5.469,11.779 
				3.737,11.937 3.938,10.128 8.204,5.861 8.636,5.43 10.757,3.309 10.227,2.779 3.222,9.784 			"/>
			
				<rect x="7.768" y="2.692" transform="matrix(-0.7071 -0.7071 0.7071 -0.7071 8.5887 18.5844)" fill="#8A8A8A" width="0.75" height="9.643"/>
		</g>
		<g>
			<polygon fill="#8A8A8A" points="10.5,7.809 10.5,14.25 0.75,14.25 0.75,3.75 3.75,3.75 3.75,0.75 10.5,0.75 10.5,2.506 
				11.022,1.983 11.25,2.211 11.25,0 3.75,0 0,3.75 0,15 11.25,15 11.25,7.059 			"/>
		</g>
	</g>
</g>
<polygon fill="#8A8A8A" points="53.043,20 47.5,25.544 41.956,20 40,21.957 45.543,27.5 40,33.043 41.956,35 47.5,29.456 53.043,35 
	55,33.043 49.456,27.5 55,21.957 "/>
<polygon fill="#5182BB" points="73.045,20 67.5,25.544 61.958,20 60,21.957 65.545,27.5 60,33.043 61.958,35 67.5,29.456 73.045,35 
	75,33.043 69.458,27.5 75,21.957 "/>
<g>
	<polygon fill="#5182BB" points="26.495,29 26.495,27.5 20,31.25 26.495,35 26.495,33.5 35,33.5 35,29 	"/>
	<polygon fill="#5182BB" points="35,23.75 28.505,20 28.505,21.5 20,21.5 20,26 28.505,26 28.505,27.5 	"/>
</g>
<g>
	<g>
		<g>
			<path fill="#5182BB" d="M33.939,4.37L35,3.309l-2.652-2.652l-1.061,1.061L33.939,4.37z"/>
			<path fill="#5182BB" d="M33.144,5.165l0.531-0.53l-2.652-2.652l-0.53,0.531L33.144,5.165z"/>
			<polygon fill="#5182BB" points="22.89,12.767 25.808,12.502 32.878,5.43 32.348,4.9 30.227,7.021 29.796,7.452 25.469,11.779 
				23.737,11.937 23.938,10.128 28.204,5.861 28.636,5.43 30.757,3.309 30.227,2.779 23.222,9.784 			"/>
			
				<rect x="27.768" y="2.692" transform="matrix(-0.7074 -0.7068 0.7068 -0.7074 42.7422 32.7192)" fill="#5182BB" width="0.75" height="9.643"/>
		</g>
		<g>
			<polygon fill="#5182BB" points="30.5,7.809 30.5,14.25 20.75,14.25 20.75,3.75 23.75,3.75 23.75,0.75 30.5,0.75 30.5,2.506 
				31.022,1.983 31.25,2.211 31.25,0 23.75,0 20,3.75 20,15 31.25,15 31.25,7.059 			"/>
		</g>
	</g>
</g>
<g>
	<g>
		<path fill="#8A8A8A" d="M47.5,2.624c-4.541,0-7.5,4.688-7.5,4.688S42.959,12,47.5,12c4.543,0,7.5-4.688,7.5-4.688
			S52.043,2.624,47.5,2.624z M47.5,11.062c-3.142,0-5.486-2.624-6.349-3.749c0.865-1.124,3.222-3.751,6.349-3.751
			c3.143,0,5.487,2.624,6.35,3.749C52.984,8.435,50.629,11.062,47.5,11.062z"/>
		<circle fill="#8A8A8A" cx="47.5" cy="6.374" r="3.75"/>
		<path fill="#FFFFFF" d="M47.5,3.562c-1.551,0-2.812,1.262-2.812,2.812c0,0.259,0.211,0.469,0.471,0.469s0.469-0.209,0.469-0.469
			c0-1.034,0.842-1.875,1.875-1.875c0.261,0,0.47-0.209,0.47-0.469C47.971,3.77,47.76,3.562,47.5,3.562z"/>
	</g>
	<rect x="40" y="-0.188" fill="none" width="15" height="15"/>
</g>
<g>
	<g>
		<path fill="#5182BB" d="M67.5,2.624c-4.541,0-7.5,4.688-7.5,4.688S62.959,12,67.5,12c4.543,0,7.5-4.688,7.5-4.688
			S72.043,2.624,67.5,2.624z M67.5,11.062c-3.142,0-5.484-2.624-6.349-3.749c0.865-1.124,3.222-3.751,6.349-3.751
			c3.145,0,5.487,2.624,6.352,3.749C72.984,8.435,70.629,11.062,67.5,11.062z"/>
		<circle fill="#5182BB" cx="67.5" cy="6.374" r="3.75"/>
		<path fill="#FFFFFF" d="M67.5,3.562c-1.551,0-2.812,1.262-2.812,2.812c0,0.259,0.211,0.469,0.47,0.469
			c0.26,0,0.469-0.209,0.469-0.469c0-1.034,0.842-1.875,1.875-1.875c0.26,0,0.469-0.209,0.469-0.469
			C67.971,3.77,67.762,3.562,67.5,3.562z"/>
	</g>
	<rect x="60" y="-0.188" fill="none" width="15" height="15"/>
</g>
<g>
	<path fill="#8A8A8A" d="M11,44v10H1V44H11 M12,43H0v12h12V43L12,43z"/>
	<polygon fill="#8A8A8A" points="7.688,49.75 6,47.5 1.5,53.5 4.875,53.5 6,53.5 10.5,53.5 10.5,46 	"/>
	<circle fill="#8A8A8A" cx="2.625" cy="45.625" r="1.125"/>
	<polygon fill="#8A8A8A" points="1.5,41.5 1.5,43 2.25,43 2.25,42.25 12.75,42.25 12.75,52.75 12,52.75 12,53.5 13.5,53.5 
		13.5,41.5 	"/>
	<polygon fill="#8A8A8A" points="3,40 3,41.5 3.75,41.5 3.75,40.75 14.25,40.75 14.25,51.25 13.5,51.25 13.5,52 15,52 15,40 	"/>
</g>
<g>
	<path fill="#5182BB" d="M31,44v10H21V44H31 M32,43H20v12h12V43L32,43z"/>
	<polygon fill="#5182BB" points="27.688,49.75 26,47.5 21.5,53.5 24.875,53.5 26,53.5 30.5,53.5 30.5,46 	"/>
	<circle fill="#5182BB" cx="22.625" cy="45.625" r="1.125"/>
	<polygon fill="#5182BB" points="21.5,41.5 21.5,43 22.25,43 22.25,42.25 32.75,42.25 32.75,52.75 32,52.75 32,53.5 33.5,53.5 
		33.5,41.5 	"/>
	<polygon fill="#5182BB" points="23,40 23,41.5 23.75,41.5 23.75,40.75 34.25,40.75 34.25,51.25 33.5,51.25 33.5,52 35,52 35,40 	
		"/>
</g>
</svg>
