<?xml version="1.0" encoding="utf-8"?>
<!-- Generator: Adobe Illustrator 15.1.0, SVG Export Plug-In  -->
<!DOCTYPE svg PUBLIC "-//W3C//DTD SVG 1.1//EN" "http://www.w3.org/Graphics/SVG/1.1/DTD/svg11.dtd" [
	<!ENTITY ns_flows "http://ns.adobe.com/Flows/1.0/">
]>
<svg version="1.1"
	 xmlns="http://www.w3.org/2000/svg" xmlns:xlink="http://www.w3.org/1999/xlink" xmlns:a="http://ns.adobe.com/AdobeSVGViewerExtensions/3.0/"
	 x="0px" y="0px" width="100px" height="30px" viewBox="0 0 100 30" overflow="visible" enable-background="new 0 0 100 30"
	 xml:space="preserve">
<defs>
</defs>
<circle fill-rule="evenodd" clip-rule="evenodd" fill="#376BA7" cx="50" cy="15" r="15"/>
<polygon fill="#FFFFFF" points="53.934,9.508 52.688,17.082 50.918,9.508 50,9.508 49.082,9.508 47.312,17.082 46.066,9.508 
	44,9.508 46.229,20.492 48.262,20.492 50,12.885 51.738,20.492 53.771,20.492 56,9.508 "/>
<circle fill-rule="evenodd" clip-rule="evenodd" fill="#39A737" cx="85" cy="15" r="15"/>
<polygon fill="#FFFFFF" points="90.416,11.716 86.2,11.716 86.2,7.5 "/>
<polygon fill="#FFFFFF" points="90.416,22.5 79.584,22.5 79.584,7.5 85.014,7.5 85.014,12.917 90.416,12.917 "/>
<circle fill-rule="evenodd" clip-rule="evenodd" fill="#CC3A3A" cx="15" cy="15" r="15"/>
<path id="path4463_1_" fill="#FFFFFF" d="M12.096,16.349c0.502-0.984,1.071-2.093,1.531-3.207l0,0l0.179-0.439
	c-0.595-2.271-0.954-4.094-0.636-5.273l0,0c0.088-0.307,0.443-0.494,0.826-0.494l0,0l0.229,0.003h0.043
	c0.521-0.007,0.766,0.655,0.794,0.913l0,0c0.047,0.429-0.154,1.155-0.154,1.155l0,0c0-0.293,0.014-0.767-0.172-1.175l0,0
	c-0.216-0.474-0.422-0.757-0.605-0.8l0,0c-0.094,0.061-0.184,0.189-0.215,0.438l0,0c-0.063,0.348-0.082,0.787-0.082,1.013l0,0
	c0,0.799,0.154,1.854,0.464,2.941l0,0c0.059-0.169,0.11-0.331,0.151-0.482l0,0c0.063-0.24,0.467-1.822,0.467-1.822l0,0
	c0,0-0.104,2.108-0.243,2.745l0,0c-0.03,0.134-0.064,0.268-0.099,0.404l0,0c0.508,1.425,1.33,2.695,2.311,3.611l0,0
	c0.387,0.361,0.874,0.652,1.336,0.918l0,0c1.008-0.145,1.937-0.212,2.711-0.204l0,0c1.029,0.013,1.784,0.165,2.09,0.466l0,0
	c0.148,0.146,0.21,0.323,0.229,0.52l0,0c0.004,0.078-0.033,0.259-0.046,0.304l0,0c0.013-0.055,0.013-0.326-0.812-0.589l0,0
	c-0.652-0.208-1.867-0.202-3.327-0.045l0,0c1.688,0.826,3.333,1.236,3.853,0.99l0,0c0.128-0.063,0.284-0.274,0.284-0.274l0,0
	c0,0-0.093,0.417-0.158,0.522l0,0c-0.085,0.113-0.249,0.236-0.405,0.277l0,0c-0.823,0.219-2.967-0.289-4.834-1.356l0,0
	c-2.085,0.308-4.379,0.875-6.216,1.478l0,0c-1.805,3.164-3.162,4.616-4.265,4.064l0,0l-0.408-0.205
	c-0.164-0.093-0.188-0.324-0.15-0.511l0,0c0.129-0.63,0.918-1.578,2.503-2.526l0,0c0.172-0.103,0.933-0.505,0.933-0.505l0,0
	c0,0-0.563,0.544-0.695,0.652l0,0c-1.267,1.037-2.201,2.342-2.177,2.849l0,0l0.005,0.044C8.409,22.595,10.021,20.406,12.096,16.349
	 M12.754,16.685c-0.348,0.652-0.686,1.257-0.998,1.812l0,0c1.729-0.724,3.588-1.188,5.359-1.517l0,0
	c-0.236-0.165-0.469-0.338-0.686-0.522l0,0c-0.977-0.827-1.719-1.856-2.257-2.941l0,0C13.828,14.438,13.423,15.418,12.754,16.685"/>
</svg>
